<?xml version="1.0" encoding="utf-8"?>
<!-- Generator: Adobe Illustrator 21.1.0, SVG Export Plug-In . SVG Version: 6.00 Build 0)  -->
<svg version="1.1" id="Layer_1" xmlns="http://www.w3.org/2000/svg" xmlns:xlink="http://www.w3.org/1999/xlink" x="0px" y="0px"
	 viewBox="0 0 144 144" style="enable-background:new 0 0 144 144;" xml:space="preserve">
<style type="text/css">
	.st0{fill:#00B0B9;}
</style>
<g>
	<g>
		<path class="st0" d="M79.9,10.8c0,6-4.8,10.8-10.8,10.8c-6,0-10.8-4.8-10.8-10.8S63.1,0,69.1,0C75.1,0,79.9,4.8,79.9,10.8z
			 M69.1,30.2c-6.2,0-11.2,5-11.2,11.2s5,11.2,11.2,11.2s11.2-5,11.2-11.2S75.3,30.2,69.1,30.2z M69.1,60.3
			c-6.4,0-11.7,5.2-11.7,11.7s5.2,11.7,11.7,11.7S80.8,78.4,80.8,72S75.6,60.3,69.1,60.3z M69.1,91.4c-6.2,0-11.2,5-11.2,11.2
			c0,6.2,5,11.2,11.2,11.2s11.2-5,11.2-11.2C80.4,96.4,75.3,91.4,69.1,91.4z M69.1,122.4c-6,0-10.8,4.8-10.8,10.8S63.1,144,69.1,144
			c6,0,10.8-4.8,10.8-10.8S75.1,122.4,69.1,122.4z M98.9,28.7c-7,0-12.7,5.7-12.7,12.7s5.7,12.7,12.7,12.7c7,0,12.7-5.7,12.7-12.7
			S105.9,28.7,98.9,28.7z M98.9,58.9c-7.2,0-13.1,5.9-13.1,13.1c0,7.2,5.9,13.1,13.1,13.1c7.2,0,13.1-5.9,13.1-13.1
			C112,64.8,106.1,58.9,98.9,58.9z M98.9,89.9c-7,0-12.7,5.7-12.7,12.7c0,7,5.7,12.7,12.7,12.7c7,0,12.7-5.7,12.7-12.7
			C111.6,95.6,105.9,89.9,98.9,89.9z M129.4,57.4c-8,0-14.6,6.5-14.6,14.6s6.5,14.6,14.6,14.6S144,80,144,72S137.5,57.4,129.4,57.4z
			 M39,31.6c-5.4,0-9.8,4.4-9.8,9.8s4.4,9.8,9.8,9.8s9.8-4.4,9.8-9.8S44.4,31.6,39,31.6z M39,61.8c-5.7,0-10.2,4.6-10.2,10.2
			c0,5.7,4.6,10.2,10.2,10.2S49.2,77.7,49.2,72C49.2,66.3,44.6,61.8,39,61.8z M39,92.8c-5.4,0-9.8,4.4-9.8,9.8s4.4,9.8,9.8,9.8
			s9.8-4.4,9.8-9.8S44.4,92.8,39,92.8z M8.8,63.2C3.9,63.2,0,67.1,0,72s3.9,8.8,8.8,8.8s8.8-3.9,8.8-8.8S13.6,63.2,8.8,63.2z"/>
	</g>
</g>
</svg>
